# xmcd
#
# Track frame offsets: 
#        150
#        18425
#        42387
#        58500
#        75410
#        89612
#        106479
#        122720
#        137032
#        154762
#        172560
#        184565
#
# Disc length: 2642 seconds
#
# Revision: 1
# Processed by: cddbd v1.5.2PL0 Copyright (c) Steve Scherf et al.
# Submitted via: ExactAudioCopyFreeDBPlugin 1.0
#
DISCID=8e0a500c
DTITLE=Lazy Lester - All Over You
DYEAR=1998
DGENRE=Blues
TTITLE0=I Need Money
TTITLE1=The Sun Is Shining
TTITLE2=Strange Things Happen
TTITLE3=If You Think I've Lost You
TTITLE4=I'm A Lover Not A Fighter
TTITLE5=Irene
TTITLE6=You're Gonna Ruin Me Baby
TTITLE7=Nothing But The Devil
TTITLE8=I Made Up My Mind
TTITLE9=Hello Mary Lee
TTITLE10=Tell Me Pretty Baby
TTITLE11=My Home Is A Prison
EXTD=
EXTT0=
EXTT1=
EXTT2=
EXTT3=
EXTT4=
EXTT5=
EXTT6=
EXTT7=
EXTT8=
EXTT9=
EXTT10=
EXTT11=
PLAYORDER=
